<?xml version="1.0" encoding="utf-8"?>
<!-- Generator: Adobe Illustrator 26.5.0, SVG Export Plug-In . SVG Version: 6.00 Build 0)  -->
<svg version="1.1" id="Layer_1" xmlns="http://www.w3.org/2000/svg" xmlns:xlink="http://www.w3.org/1999/xlink" x="0px" y="0px"
	 viewBox="0 0 230 72" style="enable-background:new 0 0 230 72;" xml:space="preserve">
<style type="text/css">
	.st0{fill:url(#SVGID_1_);}
	.st1{fill:#9AB044;}
	.st2{fill:#009DE2;}
	.st3{fill:#161616;}
	.st4{fill:#2D2D2D;}
</style>
<radialGradient id="SVGID_1_" cx="-173.3719" cy="342.8568" r="0.9991" gradientTransform="matrix(11.4277 0 0 -3.9825 2005.6786 1431.1466)" gradientUnits="userSpaceOnUse">
	<stop  offset="0" style="stop-color:#7FBDFF"/>
	<stop  offset="1" style="stop-color:#FFFFFF;stop-opacity:0"/>
</radialGradient>
<path class="st0" d="M24.4,69.7c6.3,0,11.4-1.8,11.4-4c0-2.2-5.1-4-11.4-4S13,63.4,13,65.6C13,67.9,18.1,69.7,24.4,69.7z"/>
<path class="st1" d="M35.6,21.4l-1.5-0.8c-0.1-0.1-0.2-0.2-0.2-0.3v-3.6c0-0.2-0.1-0.3-0.2-0.4l-4.6-2.9c-0.2-0.1-0.3-0.1-0.5,0
	L25,15.7c-0.2,0.1-0.2,0.2-0.2,0.4v3.7c0,0.2-0.1,0.2-0.2,0.3l-2.3,1.4c-0.2,0.1-0.2,0.2-0.2,0.4v7.8c0,0.2-0.1,0.2-0.2,0.3
	c-0.2,0.1-0.2,0.1-0.4,0l-1.2-0.9c-0.2-0.2-0.4-0.2-0.5,0l-4.6,3.3c-0.2,0.1-0.2,0.2-0.2,0.4v5.1c0,0.2,0.2,0.4,0.4,0.5l0.7,0.2
	c0.2,0,0.2,0,0.4-0.1c0.1-0.1,0.2-0.2,0.2-0.3v-4.8c0-0.2,0.1-0.2,0.2-0.3l2.9-2c0.1-0.1,0.2-0.1,0.4,0c0.2,0.1,0.2,0.2,0.2,0.3v7.6
	c0,0.2,0.1,0.3,0.2,0.4c0.1,0.1,0.2,0.1,0.2,0.1c0.1,0,0.1,0,0.2,0l2.7-0.9c0.2-0.1,0.3-0.2,0.3-0.4V22.7c0-0.1,0.1-0.2,0.2-0.3
	l0.8-0.6v14.3h1.1V17.3c0-0.2,0.1-0.2,0.2-0.3l2.3-1.4c0.1-0.1,0.2-0.1,0.4,0c0.1,0.1,0.2,0.2,0.2,0.3v19.8c0,0.2,0.1,0.3,0.2,0.4
	c0.2,0.1,0.3,0.1,0.5,0l1-0.6c0.2-0.1,0.2-0.2,0.2-0.4V20.2l1.2,0.7c0.1,0.1,0.2,0.2,0.2,0.3v13.3l1.3-0.8c0.2-0.1,0.2-0.2,0.2-0.4
	V22l1.1,0.6c0.2,0.1,0.2,0.2,0.2,0.3v9.9l0.9-0.5V22.1C35.8,21.7,35.8,21.5,35.6,21.4z"/>
<path class="st2" d="M8.2,28.5c-0.1-0.6-0.1-1.2-0.1-1.8c0-1.8,0.3-3.6,0.8-5.2c2.2-6.6,8.4-11.4,15.7-11.4c0.1,0,0.1,0,0.2,0
	c0.1,0,0.1,0,0.2,0c2.7,0,5.2,0.6,7.4,1.7c3.7,1.8,6.5,4.9,8.1,8.7c0.4,0.8,0.6,1.7,0.8,2.7c2-1.4,4.1-2.8,6.2-4.4
	c-0.8-2.2-2-4.2-3.4-6.1c-1.5-1.9-3.3-3.6-5.2-5c-0.3-0.2-0.7-0.5-1.1-0.7c-1.7-1.1-3.7-2-5.8-2.6C31,4,29.9,3.7,28.8,3.6
	c-1.3-0.2-2.6-0.3-4-0.3c-2.1,0-4.2,0.3-6.1,0.8c-3,0.8-5.6,2-8.1,3.8C7.5,10,5,12.9,3.2,16.3c-1.4,2.6-2.3,5.5-2.7,8.6
	c-0.1,0.9-0.2,1.8-0.2,2.8c0,0.2,0.2,3.3,2.6,9C3.8,33.7,5.8,31,8.2,28.5z"/>
<path class="st2" d="M35.2,37.6C26,44.8,18.4,48.3,12.7,48.3c-1.1,0-2.3-0.2-3.3-0.5c1.2,1.7,2.6,3.6,4.1,5.6
	c1.1,1.4,2.3,2.8,3.5,4.3c1.7,2,3.7,4.2,5.9,6.4c0.4,0.5,0.8,0.8,1.2,1.3c0.2,0.2,0.4,0.4,0.5,0.5c0.2-0.2,0.5-0.5,0.6-0.7
	c4.5-4.5,8.1-8.8,11-12.6c0.3-0.4,0.6-0.8,0.8-1.1c0.5-0.6,0.9-1.2,1.4-1.8c0.3-0.4,0.5-0.8,0.8-1.1c0.8-1.2,1.7-2.4,2.4-3.6
	c0.2-0.4,0.5-0.8,0.8-1.2c2.1-3.4,3.5-6.3,4.4-8.7c0.3-0.8,0.6-1.5,0.8-2.2c1.2-3.6,1.3-5.5,1.3-5.7c0-0.7-0.1-1.4-0.1-2
	C45.1,29.2,40.3,33.6,35.2,37.6z"/>
<path class="st1" d="M61,14.5c-0.4-0.3-1-0.4-2.8,0.8c-0.1,0.1-0.2,0.1-0.2,0.2l-1.3-0.5l0.2-0.1c0.1,0,0.1-0.1,0.1-0.2l-0.1-0.2
	c0-0.1-0.1-0.1-0.2-0.1l-0.4,0.2L55,14.2l0.1-0.1c0.1,0,0.1-0.1,0.1-0.2l-0.1-0.2c0-0.1-0.1-0.1-0.2-0.1l-0.3,0.2l-1.1-0.5L52.7,14
	l3.8,2.6c-0.9,0.7-1.8,1.4-2.5,1.8l-1.4-0.6l-0.5,0.3l1.1,1L53,19.5l0.5-0.1l0.4,1.4l0.5-0.3l0.1-1.5c0.7-0.4,1.7-0.8,2.7-1.4
	l0.5,4.5l0.8-0.5l0.1-1.1l0.3-0.2c0.1,0,0.1-0.1,0.1-0.2L58.9,20c0-0.1-0.1-0.1-0.2-0.1L58.7,20l0.2-1.4l0.4-0.2
	c0.1,0,0.1-0.1,0.1-0.2L59.2,18c0-0.1-0.1-0.1-0.2-0.1L58.9,18l0.2-1.4c0.1,0,0.2-0.1,0.2-0.1c1.9-1.1,2.1-1.6,2.1-2.1
	C61.1,14.5,61.1,14.5,61,14.5z"/>
<path class="st1" d="M49.8,20.8c0.1-0.1,0-0.2-0.2-0.2c-5.2,3.6-28.5,19.5-36.1,16.8c-6.2-2.2-0.3-8.3,3.3-11.4
	c0.2-0.2,0-0.4-0.2-0.3c-5.4,3.6-17,12.5-9.1,18.2C18,51.6,44.6,26.1,49.8,20.8z"/>
<path class="st3" d="M143.2,26c6.7,0,11.9,5.2,11.9,13.2c0,8.1-5.2,13.5-11.9,13.5c-4.1,0-7-2-8.6-4.1v16.1H128V26.4h6.6v3.7
	C136.2,27.9,139.2,26,143.2,26z M141.5,31.7c-3.5,0-6.8,2.7-6.8,7.6c0,4.9,3.3,7.6,6.8,7.6c3.6,0,6.9-2.8,6.9-7.7
	C148.4,34.3,145.1,31.7,141.5,31.7z"/>
<path class="st3" d="M160,17.6h6.6v34.6H160V17.6z"/>
<path class="st3" d="M183.7,26c4.2,0,7.1,2,8.6,4.1v-3.7h6.6v25.9h-6.6v-3.8c-1.5,2.3-4.5,4.2-8.7,4.2c-6.6,0-11.9-5.4-11.9-13.5
	C171.7,31.1,177.1,26,183.7,26z M185.4,31.8c-3.5,0-6.8,2.6-6.8,7.5c0,4.9,3.3,7.7,6.8,7.7c3.7,0,6.9-2.7,6.9-7.6
	C192.3,34.5,188.9,31.8,185.4,31.8z"/>
<path class="st3" d="M223.1,37.9c0-4.2-2.3-6.4-5.8-6.4c-3.6,0-5.9,2.3-5.9,6.4v14.3h-6.6V26.4h6.6v3.3c1.7-2.2,4.5-3.6,7.8-3.6
	c6.1,0,10.4,3.9,10.4,11.1v15.2h-6.6V37.9z"/>
<path class="st4" d="M204.8,39.8v12.4h6.6V37.9c0-0.4,0.1-0.8,0.1-1.1L204.8,39.8z"/>
<path class="st4" d="M229.7,52.3v-12l-6.6-2.5c0,0.1,0,0.2,0,0.2v14.3H229.7z"/>
<path class="st4" d="M161.9,36.4l-2,0.7v15.2h6.5V37.9L161.9,36.4z"/>
<path class="st4" d="M192.2,45.7l-2.2-0.7c-1.3,1.2-3,1.9-4.7,1.9c-2.9,0-5.7-2-6.5-5.4l-7-2.2c0.1,8,5.3,13.3,11.9,13.3
	c4.1,0,7.1-2,8.7-4.2v3.8h6.6v-9.5L192.2,45.7z"/>
<path class="st4" d="M134.6,48.6c1.6,2.1,4.5,4.1,8.6,4.1c6.7,0,11.9-5.4,11.9-13.5c0-0.2,0-0.3,0-0.5l-6.9,2.3
	c-0.8,3.7-3.7,5.8-6.7,5.8c-1.8,0-3.4-0.7-4.7-1.9l-2.1,0.8l-6.6-2.8v21.7h6.6V48.6L134.6,48.6z"/>
<path class="st3" d="M94.2,26.4L86.4,53h-7.2l-4.8-18.6L69.5,53h-7.3l-7.8-26.6h6.8l4.7,20.3l5.1-20.3H78l5,20.2l4.7-20.2H94.2z
	 M122.5,39.1c0,1-0.1,1.8-0.2,2.6h-19.4c0.2,1.9,0.8,3.4,2,4.5c1.2,1.1,2.6,1.6,4.4,1.6c2.5,0,4.3-1.1,5.3-3.2h7.2
	c-0.8,2.6-2.2,4.7-4.4,6.3c-2.2,1.6-4.8,2.4-8,2.4c-2.6,0-4.9-0.6-6.9-1.7c-2-1.2-3.6-2.8-4.8-4.8c-1.1-2.1-1.7-4.5-1.7-7.2
	c0-2.8,0.6-5.2,1.7-7.2c1.1-2.1,2.7-3.7,4.7-4.8c2-1.1,4.3-1.7,7-1.7c2.5,0,4.8,0.5,6.8,1.6c2,1.1,3.6,2.6,4.7,4.7
	C122,34.2,122.5,36.5,122.5,39.1z M115.6,37.2c0-1.7-0.7-3.1-1.9-4.1c-1.2-1.1-2.7-1.6-4.5-1.6c-1.7,0-3.1,0.5-4.2,1.5
	c-1.1,1-1.8,2.4-2.1,4.2H115.6z"/>
<g>
	<polygon class="st4" points="84.2,41.3 83,46.5 81.5,40.4 75.4,38.3 79.2,52.8 86.4,52.8 89.3,43 	"/>
	<polygon class="st4" points="72,37.2 67.8,38.6 65.9,46.5 64.3,39.8 58.8,41.6 62.2,52.8 69.5,52.8 73.4,37.7 	"/>
	<path class="st4" d="M109.3,47.7c-1.7,0-3.2-0.5-4.4-1.6c-0.6-0.5-1.1-1.2-1.4-2L97,44.9c0.2,0.6,0.5,1.3,0.8,1.8
		c1.2,2.1,2.7,3.7,4.8,4.8c2,1.1,4.4,1.7,6.9,1.7c3.2,0,5.8-0.8,8-2.4c2.2-1.7,3.6-3.8,4.4-6.3h-7.2
		C113.6,46.6,111.8,47.7,109.3,47.7z"/>
</g>
</svg>
