<svg width="170" height="67" viewBox="0 0 170 67" fill="none" xmlns="http://www.w3.org/2000/svg">
<path d="M24.4363 66.66C30.7389 66.66 35.8482 64.8635 35.8482 62.6474C35.8482 60.4313 30.7389 58.6348 24.4363 58.6348C18.1337 58.6348 13.0244 60.4313 13.0244 62.6474C13.0244 64.8635 18.1337 66.66 24.4363 66.66Z" fill="url(#paint0_radial_1_10308)"/>
<path d="M35.6195 18.4336L34.0979 17.6008C34.0218 17.5251 33.9458 17.4494 33.9458 17.298V13.6639C33.9458 13.5125 33.8697 13.361 33.7175 13.2853L29.0767 10.4083C28.9245 10.3326 28.7724 10.3326 28.6202 10.4083L25.0445 12.6796C24.8923 12.7554 24.8163 12.9068 24.8163 13.0582V16.768C24.8163 16.9194 24.7402 16.9951 24.6641 17.0708L22.3817 18.5093C22.2296 18.585 22.1535 18.7364 22.1535 18.8879V26.686C22.1535 26.8374 22.0774 26.9131 21.9253 26.9888C21.7731 27.0645 21.697 27.0645 21.5449 26.9888L20.3276 26.0803C20.1754 25.9289 19.9472 25.9289 19.795 26.0803L15.2303 29.3358C15.0781 29.4116 15.0781 29.563 15.0781 29.7144V34.8627C15.0781 35.0898 15.2303 35.2412 15.4585 35.3169L16.1432 35.4684C16.2954 35.4684 16.3715 35.4684 16.5236 35.3926C16.5997 35.3169 16.6758 35.1655 16.6758 35.0898V30.2444C16.6758 30.0929 16.7519 30.0172 16.8279 29.9415L19.719 27.8974C19.795 27.8216 19.9472 27.8216 20.0994 27.8974C20.2515 27.9731 20.2515 28.0488 20.2515 28.2002V35.7712C20.2515 35.9226 20.3276 36.074 20.4037 36.1497C20.4797 36.2255 20.5558 36.2255 20.6319 36.2255C20.708 36.2255 20.708 36.2255 20.7841 36.2255L23.4468 35.3169C23.599 35.2412 23.7512 35.0898 23.7512 34.9384V19.7207C23.7512 19.645 23.8272 19.4935 23.9033 19.4178L24.6641 18.8122V33.1213H25.7292V14.2696C25.7292 14.1181 25.8053 14.0424 25.8814 13.9667L28.1637 12.5282C28.2398 12.4525 28.392 12.4525 28.5441 12.5282C28.6202 12.6039 28.6963 12.6796 28.6963 12.8311V32.6671C28.6963 32.8185 28.7724 32.9699 28.9245 33.0456C29.0767 33.1213 29.2289 33.1213 29.381 33.0456L30.37 32.44C30.5222 32.3643 30.5983 32.2128 30.5983 32.0614V17.2222L31.8155 17.9036C31.8916 17.9793 31.9677 18.0551 31.9677 18.2065V31.5314L33.2611 30.7743C33.4132 30.6986 33.4893 30.5472 33.4893 30.3958V19.0393L34.6305 19.645C34.7826 19.7207 34.7826 19.7964 34.7826 19.9478V29.8658L35.6956 29.3358V19.115C35.8478 18.6607 35.7717 18.5093 35.6195 18.4336Z" fill="#9AB044"/>
<path d="M8.23167 25.4751C8.15559 24.8694 8.1556 24.2637 8.1556 23.6581C8.1556 21.841 8.45991 20.0997 8.99246 18.4341C11.1988 11.8473 17.3612 7.07757 24.6648 7.00186C24.7409 7.00186 24.7409 7.00186 24.8169 7.00186C24.893 7.00186 24.893 7.00186 24.9691 7.00186C27.6319 7.00186 30.1425 7.60754 32.3488 8.74319C36.0006 10.5602 38.8916 13.6643 40.4893 17.4498C40.8697 18.2826 41.0979 19.1912 41.3261 20.1754C43.3042 18.8126 45.4344 17.3741 47.5646 15.7842C46.7277 13.5886 45.5866 11.5445 44.1411 9.65171C42.6195 7.75896 40.8697 6.01762 38.8916 4.65484C38.5873 4.42771 38.2069 4.20059 37.8265 3.97346C36.0767 2.83781 34.0986 1.92929 32.0445 1.32361C30.9794 1.02077 29.9142 0.717927 28.7731 0.566507C27.4797 0.339377 26.1864 0.263672 24.8169 0.263672C22.6867 0.263672 20.6326 0.566512 18.7306 1.02077C15.7635 1.77787 13.1007 3.06494 10.6662 4.80627C7.54695 7.00186 5.03635 9.87884 3.21045 13.2858C1.84102 15.8599 0.928072 18.7369 0.547676 21.841C0.471596 22.7495 0.395508 23.6581 0.395508 24.6423C0.395508 24.8694 0.547673 27.9735 2.98221 33.6518C3.81908 30.6991 5.79713 27.9735 8.23167 25.4751Z" fill="#009DE2"/>
<path d="M35.2391 34.5604C26.0335 41.7528 18.4256 45.3112 12.7197 45.3112C11.5785 45.3112 10.4373 45.1598 9.44824 44.857C10.6655 46.5983 12.0349 48.491 13.5565 50.4595C14.6216 51.8223 15.8389 53.2608 17.0562 54.775C18.806 56.8191 20.784 58.939 22.9143 61.2103C23.2947 61.6646 23.7511 62.0431 24.1315 62.4974C24.2837 62.6488 24.5119 62.8759 24.6641 63.0274C24.8923 62.8002 25.1206 62.5731 25.2727 62.346C29.7614 57.8034 33.4132 53.5636 36.3042 49.7781C36.6085 49.3996 36.9128 49.021 37.1411 48.6425C37.5975 48.0368 38.054 47.4311 38.5105 46.8254C38.8148 46.4469 39.0431 46.0683 39.2713 45.6898C40.1082 44.4784 40.945 43.267 41.6298 42.1314C41.858 41.7528 42.1623 41.2986 42.3905 40.92C44.4447 37.5131 45.8902 34.6361 46.8031 32.2134C47.1074 31.3806 47.4118 30.6992 47.64 30.0178C48.8573 26.4594 48.9333 24.491 48.9333 24.3395C48.9333 23.6582 48.8573 22.9768 48.8573 22.3711C45.1294 26.2323 40.3364 30.6235 35.2391 34.5604Z" fill="#009DE2"/>
<path d="M61.0302 11.4686C60.6498 11.1658 60.0411 11.0901 58.2152 12.3014C58.1392 12.3771 58.0631 12.3771 58.0631 12.4528L56.7697 11.9229L56.9219 11.8471C56.998 11.8471 56.998 11.7714 56.998 11.6957L56.9219 11.5443C56.9219 11.4686 56.8458 11.4686 56.7697 11.4686L56.3893 11.6957L55.0199 11.1658L55.096 11.09C55.1721 11.09 55.1721 11.0143 55.1721 10.9386L55.096 10.7872C55.096 10.7115 55.0199 10.7115 54.9438 10.7115L54.6395 10.9386L53.5744 10.4844L52.7375 11.0143L56.5415 13.5885C55.6286 14.2699 54.7156 14.9513 54.0309 15.4055L52.6615 14.7998L52.1289 15.1027L53.2701 16.0869L52.9658 16.4655L53.4223 16.3897L53.8027 17.8282L54.3352 17.5254L54.4113 16.0112C55.096 15.6326 56.1611 15.1784 57.1501 14.6484L57.6827 19.191L58.5196 18.661L58.5956 17.5254L58.9 17.2983C58.976 17.2983 58.976 17.2226 58.976 17.1468L58.9 16.9954C58.9 16.9197 58.8239 16.9197 58.7478 16.9197L58.6717 16.9954L58.8239 15.5569L59.2043 15.3298C59.2804 15.3298 59.2804 15.2541 59.2804 15.1784L59.2043 15.027C59.2043 14.9513 59.1282 14.9513 59.0521 14.9513L58.9 15.027L59.0521 13.5885C59.1282 13.5885 59.2043 13.5128 59.2804 13.5128C61.1823 12.4528 61.4106 11.9229 61.3345 11.3929C61.1063 11.4686 61.1063 11.4686 61.0302 11.4686Z" fill="#9AB044"/>
<path d="M49.8469 17.8283C49.923 17.7526 49.8469 17.6012 49.6948 17.6769C44.4453 21.311 21.1651 37.1344 13.6332 34.4845C7.39472 32.2889 13.3289 26.2321 16.9807 23.128C17.1329 22.9766 16.9807 22.7494 16.7525 22.8252C11.3508 26.3835 -0.289289 35.3173 7.62295 41.0713C17.9697 48.5666 44.5974 23.0523 49.8469 17.8283Z" fill="#9AB044"/>
<path d="M54.2588 23.3555H60.8777V49.2483H54.2588V23.3555Z" fill="#161616"/>
<path d="M82.4844 22.9766C89.1794 22.9766 94.3527 28.2006 94.3527 36.2258C94.3527 44.3268 89.1033 49.7022 82.4844 49.7022C78.3761 49.7022 75.4851 47.658 73.8874 45.6138V61.6644H67.2686V23.4308H73.8874V27.1406C75.4851 24.945 78.4522 22.9766 82.4844 22.9766ZM80.8107 28.7305C77.311 28.7305 73.9635 31.4561 73.9635 36.3772C73.9635 41.2984 77.311 44.0239 80.8107 44.0239C84.3864 44.0239 87.7339 41.2227 87.7339 36.3015C87.6578 31.3047 84.3864 28.7305 80.8107 28.7305Z" fill="#161616"/>
<path d="M99.2217 14.6484H105.841V49.2479H99.2217V14.6484Z" fill="#161616"/>
<path d="M122.502 22.9766C126.686 22.9766 129.577 24.945 131.099 27.0649V23.3551H137.718V49.2479H131.099V45.4624C129.577 47.7337 126.61 49.7022 122.426 49.7022C115.807 49.7022 110.558 44.3268 110.558 36.2258C110.558 28.1248 115.883 22.9766 122.502 22.9766ZM124.176 28.7305C120.676 28.7305 117.329 31.3804 117.329 36.2258C117.329 41.147 120.676 43.9482 124.176 43.9482C127.828 43.9482 131.099 41.2227 131.099 36.3015C131.099 31.4561 127.752 28.7305 124.176 28.7305Z" fill="#161616"/>
<path d="M162.367 34.9387C162.367 30.7747 160.085 28.5034 156.585 28.5034C153.01 28.5034 150.727 30.7747 150.727 34.9387V49.2479H144.108V23.3551H150.727V26.6106C152.401 24.415 155.216 22.9766 158.563 22.9766C164.65 22.9766 168.986 26.9135 168.986 34.0302V49.2479H162.367V34.9387Z" fill="#161616"/>
<path d="M144.108 36.8311V49.2476H150.727V34.9384C150.727 34.5598 150.803 34.1813 150.803 33.8027L144.108 36.8311Z" fill="#2D2D2D"/>
<path d="M168.986 49.3234V37.2855L162.367 34.7871C162.367 34.8628 162.367 34.9385 162.367 35.0142V49.3234H168.986Z" fill="#2D2D2D"/>
<path d="M131.099 42.7366L128.893 42.0552C127.599 43.2666 125.926 43.9479 124.176 43.9479C121.285 43.9479 118.47 41.9795 117.633 38.5726L110.634 36.377C110.71 44.4022 115.959 49.7019 122.502 49.7019C126.61 49.7019 129.578 47.7334 131.175 45.4621V49.2476H137.794V39.7082L131.099 42.7366Z" fill="#2D2D2D"/>
<path d="M101.2 33.4238L99.2217 34.1052V49.3229H105.764V34.8623L101.2 33.4238Z" fill="#2D2D2D"/>
<path d="M73.8874 45.6133C75.4851 47.7332 78.3761 49.7017 82.4844 49.7017C89.1794 49.7017 94.3527 44.3263 94.3527 36.2253C94.3527 36.0739 94.3527 35.9224 94.3527 35.6953L87.4295 38.0423C86.6688 41.7521 83.7777 43.872 80.7346 43.872C78.9848 43.872 77.311 43.1906 76.0177 41.9793L73.8874 42.7364L67.2686 39.9351V61.5881H73.8874V45.6133Z" fill="#2D2D2D"/>
<path d="M54.2588 34.4082V49.3231H60.8777V37.2095L54.2588 34.4082Z" fill="#2D2D2D"/>
<defs>
<radialGradient id="paint0_radial_1_10308" cx="0" cy="0" r="1" gradientUnits="userSpaceOnUse" gradientTransform="translate(24.4156 62.7025) scale(11.4277 3.98255)">
<stop stop-color="#7FBDFF"/>
<stop offset="1" stop-color="white" stop-opacity="0"/>
</radialGradient>
</defs>
</svg>
